<?xml version="1.0" encoding="UTF-8"?>
<svg version="1.1" xmlns="http://www.w3.org/2000/svg" width="512" height="512">
<path d="M0 0 C1.01790619 0.00215515 2.03581238 0.0043103 3.08456421 0.00653076 C17.69363523 0.05620146 32.02575853 0.30709809 46.375 3.3125 C47.34985352 3.51117676 48.32470703 3.70985352 49.32910156 3.91455078 C97.7109774 14.03517194 141.69928269 35.9516877 177.375 70.3125 C178.3640332 71.26068604 178.3640332 71.26068604 179.37304688 72.22802734 C188.86130305 81.37247479 197.6012044 90.66984009 205.375 101.3125 C206.23306152 102.46355017 207.09113451 103.61459177 207.94921875 104.765625 C213.98736829 112.95680614 219.34595521 121.47054105 224.375 130.3125 C224.73948242 130.94430176 225.10396484 131.57610352 225.47949219 132.22705078 C247.08534998 169.97532572 256.85198095 212.74189997 256.6875 255.9375 C256.68534485 256.95540619 256.6831897 257.97331238 256.68096924 259.02206421 C256.63129854 273.63113523 256.38040191 287.96325853 253.375 302.3125 C253.07698486 303.77478027 253.07698486 303.77478027 252.77294922 305.26660156 C242.65232806 353.6484774 220.7358123 397.63678269 186.375 433.3125 C185.74287598 433.97185547 185.11075195 434.63121094 184.45947266 435.31054688 C175.31502521 444.79880305 166.01765991 453.5387044 155.375 461.3125 C154.22394983 462.17056152 153.07290823 463.02863451 151.921875 463.88671875 C143.73224019 469.92427396 135.22961724 475.30707302 126.375 480.3125 C125.66778809 480.7146875 124.96057617 481.116875 124.23193359 481.53125 C101.09654164 494.5566741 75.92537591 503.30551461 49.9375 508.625 C49.21860596 508.77235596 48.49971191 508.91971191 47.7590332 509.0715332 C33.08339502 511.86090125 18.55831162 512.66142619 3.64770508 512.62817383 C0.70811513 512.6250221 -2.2304558 512.64854926 -5.16992188 512.67382812 C-18.54306192 512.71848737 -31.43916711 511.51301542 -44.625 509.3125 C-46.33055054 509.03031616 -46.33055054 509.03031616 -48.07055664 508.74243164 C-91.33802759 500.97044532 -132.38793216 480.98345309 -165.625 452.3125 C-166.37007813 451.67828125 -167.11515625 451.0440625 -167.8828125 450.390625 C-181.38779833 438.57948485 -194.05918743 425.82889772 -204.625 411.3125 C-205.48149066 410.16255169 -206.33826433 409.01281411 -207.1953125 407.86328125 C-213.23534209 399.67315742 -218.61867614 391.16870382 -223.625 382.3125 C-224.0271875 381.60528809 -224.429375 380.89807617 -224.84375 380.16943359 C-237.8691741 357.03404164 -246.61801461 331.86287591 -251.9375 305.875 C-252.08485596 305.15610596 -252.23221191 304.43721191 -252.3840332 303.6965332 C-255.35789088 288.05024391 -255.99800362 272.57681954 -255.9375 256.6875 C-255.93534485 255.66959381 -255.9331897 254.65168762 -255.93096924 253.60293579 C-255.88129854 238.99386477 -255.63040191 224.66174147 -252.625 210.3125 C-252.42632324 209.33764648 -252.22764648 208.36279297 -252.02294922 207.35839844 C-241.90232806 158.9765226 -219.9858123 114.98821731 -185.625 79.3125 C-184.99287598 78.65314453 -184.36075195 77.99378906 -183.70947266 77.31445312 C-174.56502521 67.82619695 -165.26765991 59.0862956 -154.625 51.3125 C-153.47394983 50.45443848 -152.32290823 49.59636549 -151.171875 48.73828125 C-142.98224019 42.70072604 -134.47961724 37.31792698 -125.625 32.3125 C-124.91778809 31.9103125 -124.21057617 31.508125 -123.48193359 31.09375 C-100.34654164 18.0683259 -75.17537591 9.31948539 -49.1875 4 C-48.46860596 3.85264404 -47.74971191 3.70528809 -47.0090332 3.5534668 C-31.36274391 0.57960912 -15.88931954 -0.06050362 0 0 Z " fill="#2668ED" transform="translate(255.625,-0.3125)"/>
<path d="M0 0 C1.42430973 1.4482193 1.42430973 1.4482193 3.08766174 3.46350098 C7.02637554 8.09111473 11.25726259 12.33498405 15.59741211 16.58398438 C17.31590238 18.27617314 19.03431843 19.96843728 20.75267029 21.6607666 C21.65327116 22.54589432 22.55387203 23.43102203 23.48176384 24.3429718 C26.31425678 27.13007147 29.14079719 29.92311107 31.9644928 32.71911621 C32.44321191 33.19309609 32.92193103 33.66707597 33.41515678 34.15541887 C34.3929508 35.12361423 35.37071462 36.09184008 36.34844887 37.06009579 C42.91043892 43.55839252 49.47626553 50.05249325 56.06860352 56.52001953 C60.5329868 60.89999258 64.98301167 65.29399686 69.41689116 69.70485353 C71.75839318 72.03309701 74.10859188 74.3513051 76.47230339 76.6570282 C79.10309983 79.22516119 81.70802523 81.81708417 84.30834961 84.41601562 C85.09216507 85.16949783 85.87598053 85.92298004 86.68354797 86.69929504 C87.38863495 87.41393417 88.09372192 88.1285733 88.82017517 88.86486816 C89.43790267 89.4739225 90.05563017 90.08297684 90.69207668 90.71048737 C92 93 92 93 92 101 C102.56 101 113.12 101 124 101 C124 153.8 124 206.6 124 261 C113.44 261 102.88 261 92 261 C92 271.56 92 282.12 92 293 C102.56 293 113.12 293 124 293 C124 308.84 124 324.68 124 341 C134.56 341 145.12 341 156 341 C156 325.16 156 309.32 156 293 C166.56 293 177.12 293 188 293 C188 308.84 188 324.68 188 341 C198.56 341 209.12 341 220 341 C220 324.17 220 307.34 220 290 C224.455 288.515 224.455 288.515 229 287 C239.94085437 282.04399372 248.94896941 275.83832517 255.515625 265.6640625 C257 264 257 264 262 262 C294.67 294.67 327.34 327.34 361 361 C355.705846 371.58830799 344.32132634 379.03477908 335 386 C334.4220166 386.43344727 333.8440332 386.86689453 333.24853516 387.31347656 C324.51678936 393.81851621 315.47714848 399.64266231 306 405 C305.29278809 405.4021875 304.58557617 405.804375 303.85693359 406.21875 C280.72154164 419.2441741 255.55037591 427.99301461 229.5625 433.3125 C228.84360596 433.45985596 228.12471191 433.60721191 227.3840332 433.7590332 C212.70839502 436.54840125 198.18331162 437.34892619 183.27270508 437.31567383 C180.33311513 437.3125221 177.3945442 437.33604926 174.45507812 437.36132812 C161.08193808 437.40598737 148.18583289 436.20051542 135 434 C133.29444946 433.71781616 133.29444946 433.71781616 131.55444336 433.42993164 C88.28697241 425.65794532 47.23706784 405.67095309 14 377 C13.25492187 376.36578125 12.50984375 375.7315625 11.7421875 375.078125 C-1.76279833 363.26698485 -14.43418743 350.51639772 -25 336 C-25.85649066 334.85005169 -26.71326433 333.70031411 -27.5703125 332.55078125 C-33.61034209 324.36065742 -38.99367614 315.85620382 -44 307 C-44.4021875 306.29278809 -44.804375 305.58557617 -45.21875 304.85693359 C-58.2441741 281.72154164 -66.99301461 256.55037591 -72.3125 230.5625 C-72.45985596 229.84360596 -72.60721191 229.12471191 -72.7590332 228.3840332 C-75.73289088 212.73774391 -76.37300362 197.26431954 -76.3125 181.375 C-76.31034485 180.35709381 -76.3081897 179.33918762 -76.30596924 178.29043579 C-76.25629854 163.68136477 -76.00540191 149.34924147 -73 135 C-72.80132324 134.02514648 -72.60264648 133.05029297 -72.39794922 132.04589844 C-62.24955846 83.53126937 -40.2613611 39.8717006 -6 4 C-5.27683594 3.22914062 -4.55367188 2.45828125 -3.80859375 1.6640625 C-2 0 -2 0 0 0 Z " fill="#1458E0" transform="translate(76,75)"/>
<path d="M0 0 C10.56 0 21.12 0 32 0 C32 15.84 32 31.68 32 48 C42.56 48 53.12 48 64 48 C64 32.16 64 16.32 64 0 C74.56 0 85.12 0 96 0 C96 16.83 96 33.66 96 51 C98.31 51.33 100.62 51.66 103 52 C120.01089309 58.36771399 132.06767957 71.34156799 139.5234375 87.57421875 C145.64468476 101.77616016 145.99082988 117.32868112 141 132 C140.7215625 132.85851562 140.443125 133.71703125 140.15625 134.6015625 C136.80397758 143.93590725 130.72506522 151.80574418 124 159 C123.34 159 122.68 159 122 159 C122 159.66 122 160.32 122 161 C122.87205078 161.36351562 122.87205078 161.36351562 123.76171875 161.734375 C133.57194142 167.28151662 139.54531645 181.93078744 142.9375 192.25 C145.70232372 203.87599787 144.87413545 216.7713066 141 228 C140.68289063 228.97066406 140.36578125 229.94132813 140.0390625 230.94140625 C133.63748223 248.35279655 120.38803535 259.70979279 104.1640625 267.78515625 C101 269 101 269 96 269 C96 285.83 96 302.66 96 320 C85.44 320 74.88 320 64 320 C64 304.16 64 288.32 64 272 C53.44 272 42.88 272 32 272 C32 287.84 32 303.68 32 320 C21.44 320 10.88 320 0 320 C0 304.16 0 288.32 0 272 C-10.56 272 -21.12 272 -32 272 C-32 261.44 -32 250.88 -32 240 C-21.44 240 -10.88 240 0 240 C0 187.2 0 134.4 0 80 C-10.56 80 -21.12 80 -32 80 C-32 69.44 -32 58.88 -32 48 C-21.44 48 -10.88 48 0 48 C0 32.16 0 16.32 0 0 Z " fill="#FEFEFE" transform="translate(200,96)"/>
<path d="M0 0 C8.37375 -0.061875 16.7475 -0.12375 25.375 -0.1875 C27.99872559 -0.21481201 30.62245117 -0.24212402 33.32568359 -0.27026367 C35.43326356 -0.27903538 37.54084866 -0.28667769 39.6484375 -0.29296875 C40.72005127 -0.30831665 41.79166504 -0.32366455 42.89575195 -0.33947754 C53.48039153 -0.34311654 62.92709443 1.83903376 71 9 C77.78241635 16.96027873 80.55808097 24.0830715 80.37890625 34.546875 C79.54082221 42.18467186 76.23342976 49.82070853 70.9453125 55.46875 C64.62669349 60.44244207 56.76243422 64.13231337 48.70239258 64.11352539 C47.60640747 64.11340454 46.51042236 64.11328369 45.38122559 64.11315918 C44.23061646 64.10804321 43.08000732 64.10292725 41.89453125 64.09765625 C40.83600952 64.09664917 39.77748779 64.09564209 38.68688965 64.09460449 C34.72874876 64.08936829 30.77062331 64.07540705 26.8125 64.0625 C17.964375 64.041875 9.11625 64.02125 0 64 C0 42.88 0 21.76 0 0 Z " fill="#1458E0" transform="translate(232,272)"/>
<path d="M0 0 C8.37375 -0.061875 16.7475 -0.12375 25.375 -0.1875 C27.99872559 -0.21481201 30.62245117 -0.24212402 33.32568359 -0.27026367 C35.43326356 -0.27903538 37.54084866 -0.28667769 39.6484375 -0.29296875 C40.72005127 -0.30831665 41.79166504 -0.32366455 42.89575195 -0.33947754 C53.48039153 -0.34311654 62.92709443 1.83903376 71 9 C77.78241635 16.96027873 80.55808097 24.0830715 80.37890625 34.546875 C79.54082221 42.18467186 76.23342976 49.82070853 70.9453125 55.46875 C64.62669349 60.44244207 56.76243422 64.13231337 48.70239258 64.11352539 C47.60640747 64.11340454 46.51042236 64.11328369 45.38122559 64.11315918 C44.23061646 64.10804321 43.08000732 64.10292725 41.89453125 64.09765625 C40.83600952 64.09664917 39.77748779 64.09564209 38.68688965 64.09460449 C34.72874876 64.08936829 30.77062331 64.07540705 26.8125 64.0625 C17.964375 64.041875 9.11625 64.02125 0 64 C0 42.88 0 21.76 0 0 Z " fill="#2668ED" transform="translate(232,176)"/>
<path d="M0 0 C11.38876633 -0.58459447 21.24660545 1.23541483 30 9 C36.0404075 16.08940956 39.31780491 22.42755919 39.125 31.875 C39.10695313 33.02742188 39.08890625 34.17984375 39.0703125 35.3671875 C39.04710937 36.23601562 39.02390625 37.10484375 39 38 C35.8699867 36.610708 33.74613383 34.99466447 31.33300781 32.57592773 C30.63258362 31.87858017 29.93215942 31.1812326 29.21051025 30.4627533 C28.46557312 29.71063065 27.72063599 28.958508 26.953125 28.18359375 C26.18192322 27.41193375 25.41072144 26.64027374 24.6161499 25.8452301 C22.98993633 24.21599862 21.36615074 22.58434054 19.74462891 20.95043945 C17.25086627 18.43837263 14.74914632 15.93444756 12.24609375 13.43164062 C10.66879705 11.84943051 9.09195804 10.26676395 7.515625 8.68359375 C6.76259094 7.92944687 6.00955688 7.17529999 5.23370361 6.39830017 C4.54588806 5.70410477 3.85807251 5.00990936 3.14941406 4.29467773 C2.53970764 3.68115952 1.93000122 3.0676413 1.30181885 2.43553162 C0 1 0 1 0 0 Z " fill="#296AED" transform="translate(273,272)"/>
<path d="M0 0 C7.59 0 15.18 0 23 0 C23 7.59 23 15.18 23 23 C15.11136861 16.23831595 15.11136861 16.23831595 11.81640625 12.94921875 C10.76743164 11.90217773 10.76743164 11.90217773 9.69726562 10.83398438 C8.99279297 10.12564453 8.28832031 9.41730469 7.5625 8.6875 C6.83095703 7.95982422 6.09941406 7.23214844 5.34570312 6.48242188 C4.65541016 5.79083984 3.96511719 5.09925781 3.25390625 4.38671875 C2.62814697 3.75983154 2.0023877 3.13294434 1.35766602 2.48706055 C0 1 0 1 0 0 Z " fill="#2668ED" transform="translate(177,176)"/>
<path d="M0 0 C1.14926266 0.95421808 2.29430541 1.91352045 3.4375 2.875 C4.07558594 3.40867188 4.71367187 3.94234375 5.37109375 4.4921875 C7 6 7 6 8 8 C5.36 8 2.72 8 0 8 C0 5.36 0 2.72 0 0 Z " fill="#1659E1" transform="translate(232,232)"/>
</svg>
